<svg xmlns="http://www.w3.org/2000/svg" xmlns:xlink="http://www.w3.org/1999/xlink" width="230" zoomAndPan="magnify" viewBox="0 0 172.5 146.249994" height="195" preserveAspectRatio="xMidYMid meet" version="1.0"><defs><g/><clipPath id="2a0d379c17"><path d="M 14.785156 21 L 138 21 L 138 143.679688 L 14.785156 143.679688 Z M 14.785156 21 " clip-rule="nonzero"/></clipPath></defs><path fill="#dfa54d" d="M 125.730469 2.675781 C 128.390625 0.015625 132.703125 0.015625 135.359375 2.675781 L 155.789062 23.105469 C 158.449219 25.761719 158.449219 30.074219 155.789062 32.734375 L 94.503906 94.019531 C 93.460938 95.0625 92.109375 95.738281 90.652344 95.945312 L 66.816406 99.351562 C 64.695312 99.652344 62.554688 98.941406 61.039062 97.425781 C 59.523438 95.910156 58.8125 93.769531 59.113281 91.644531 L 62.519531 67.8125 C 62.726562 66.355469 63.402344 65.003906 64.445312 63.960938 Z M 75.679688 71.984375 L 73.878906 84.585938 L 86.476562 82.785156 L 141.34375 27.917969 L 130.546875 17.121094 Z M 75.679688 71.984375 " fill-opacity="1" fill-rule="evenodd"/><g clip-path="url(#2a0d379c17)"><path fill="#1c8aa2" d="M 38.617188 34.726562 C 32.976562 34.726562 28.402344 39.300781 28.402344 44.941406 L 28.402344 119.847656 C 28.402344 125.488281 32.976562 130.0625 38.617188 130.0625 L 113.523438 130.0625 C 119.164062 130.0625 123.734375 125.488281 123.734375 119.847656 L 123.734375 68.777344 L 137.355469 68.777344 L 137.355469 119.847656 C 137.355469 133.011719 126.683594 143.679688 113.523438 143.679688 L 38.617188 143.679688 C 25.453125 143.679688 14.785156 133.011719 14.785156 119.847656 L 14.785156 44.941406 C 14.785156 31.78125 25.453125 21.109375 38.617188 21.109375 L 89.6875 21.109375 L 89.6875 34.726562 Z M 38.617188 34.726562 " fill-opacity="1" fill-rule="evenodd"/></g><g fill="#5e36ad" fill-opacity="1"><g transform="translate(135.922674, 139.234781)"><g><path d="M 19.890625 -23.1875 L 8.21875 -23.1875 L 5.78125 -69.921875 L 22.328125 -69.921875 Z M 5.59375 -6.84375 C 5.59375 -9.519531 6.3125 -11.539062 7.75 -12.90625 C 9.1875 -14.28125 11.273438 -14.96875 14.015625 -14.96875 C 16.660156 -14.96875 18.707031 -14.265625 20.15625 -12.859375 C 21.601562 -11.460938 22.328125 -9.457031 22.328125 -6.84375 C 22.328125 -4.320312 21.59375 -2.332031 20.125 -0.875 C 18.664062 0.570312 16.628906 1.296875 14.015625 1.296875 C 11.335938 1.296875 9.265625 0.585938 7.796875 -0.828125 C 6.328125 -2.253906 5.59375 -4.257812 5.59375 -6.84375 Z M 5.59375 -6.84375 "/></g></g></g></svg>